<?xml version="1.0" encoding="UTF-8" standalone="no"?>
<svg
   xmlns:dc="http://purl.org/dc/elements/1.1/"
   xmlns:cc="http://creativecommons.org/ns#"
   xmlns:rdf="http://www.w3.org/1999/02/22-rdf-syntax-ns#"
   xmlns:svg="http://www.w3.org/2000/svg"
   xmlns="http://www.w3.org/2000/svg"
   viewBox="0 0 2666.6667 1098.6667"
   height="1098.6667"
   width="2666.6667"
   xml:space="preserve"
   id="svg2"
   version="1.1"><metadata
     id="metadata8"><rdf:RDF><cc:Work
         rdf:about=""><dc:format>image/svg+xml</dc:format><dc:type
           rdf:resource="http://purl.org/dc/dcmitype/StillImage" /></cc:Work></rdf:RDF></metadata><defs
     id="defs6"><clipPath
       id="clipPath20"
       clipPathUnits="userSpaceOnUse"><path
         id="path18"
         d="M 0,824 H 2000 V 0 H 0 Z" /></clipPath></defs><g
     transform="matrix(1.3333333,0,0,-1.3333333,0,1098.6667)"
     id="g10"><path
       id="path12"
       style="fill:#ffffff;fill-opacity:1;fill-rule:nonzero;stroke:none"
       d="M 0,0 H 2000 V 824 H 0 Z" /><g
       id="g14"><g
         clip-path="url(#clipPath20)"
         id="g16"><g
           transform="translate(982.5654,504.4888)"
           id="g22"><path
             id="path24"
             style="fill:#365a39;fill-opacity:1;fill-rule:nonzero;stroke:none"
             d="m 0,0 c -33.026,0.294 -68.7,4.037 -106.023,11.119 -4.784,0.913 -8.286,4.94 -8.531,9.797 -0.246,4.847 2.829,9.198 7.474,10.588 L 40.123,75.487 44.484,60.882 -83.458,22.645 c 29.275,-4.681 57.317,-7.166 83.596,-7.401 z" /></g><g
           transform="translate(1117.4219,520.2876)"
           id="g26"><path
             id="path28"
             style="fill:#365a39;fill-opacity:1;fill-rule:nonzero;stroke:none"
             d="m 0,0 c 54.713,-1.886 102.487,5.755 142.37,22.792 55.057,23.499 84.665,67.615 88.005,131.119 2.028,38.546 -11.57,78.149 -35.487,103.357 -17.356,18.293 -39.415,27.968 -63.794,27.968 -47.17,0 -58.264,-33.655 -60.537,-43.973 -0.777,-3.487 -3.232,-6.316 -6.577,-7.568 l -37.181,-13.874 48.84,-7.327 c 2.756,-0.412 5.28,-1.935 6.92,-4.179 4.68,-6.419 44.591,-64.349 6.419,-122.51 C 63.401,46.836 31.774,19.364 0,0 m 84.175,172.941 c -24.222,-8.182 -145.577,-55.504 -222.342,-203.154 37.024,3.546 147.591,22.601 214.396,124.386 19.294,29.397 15.45,58.431 7.946,78.768 M -146.23,-46.095 c -3.507,0 -6.822,1.773 -8.762,4.715 -2.052,3.118 -2.293,7.135 -0.623,10.494 78.497,157.575 203.31,207.731 233.499,217.858 -2.495,4.699 -4.853,8.363 -6.498,10.745 L 6.374,207.47 c -4.739,0.712 -8.393,4.533 -8.889,9.297 -0.491,4.758 2.294,9.247 6.778,10.922 l 52.032,19.413 c 3.58,13.215 19.05,53.377 74.799,53.377 28.666,0 54.547,-11.31 74.859,-32.716 26.695,-28.14 41.886,-72.075 39.647,-114.658 C 241.979,84.292 208.354,34.377 148.356,8.766 100.435,-11.698 42.028,-19.305 -25.272,-13.795 -80.183,-40.511 -130.771,-45.25 -145.651,-46.08 c -0.191,-0.01 -0.388,-0.015 -0.579,-0.015" /></g><g
           transform="translate(1261.0508,764.9834)"
           id="g30"><path
             id="path32"
             style="fill:#365a39;fill-opacity:1;fill-rule:nonzero;stroke:none"
             d="m 0,0 c 0,-7.469 -6.055,-13.524 -13.524,-13.524 -7.469,0 -13.525,6.055 -13.525,13.524 0,7.469 6.056,13.524 13.525,13.524 C -6.055,13.524 0,7.469 0,0" /></g><g
           transform="translate(1202.5537,437.689)"
           id="g34"><path
             id="path36"
             style="fill:#365a39;fill-opacity:1;fill-rule:nonzero;stroke:none"
             d="m 0,0 c -4.208,0 -7.622,3.414 -7.622,7.622 v 74.004 c 0,4.209 3.414,7.622 7.622,7.622 4.209,0 7.622,-3.413 7.622,-7.622 V 7.622 C 7.622,3.414 4.209,0 0,0" /></g><g
           transform="translate(1246.5322,437.689)"
           id="g38"><path
             id="path40"
             style="fill:#365a39;fill-opacity:1;fill-rule:nonzero;stroke:none"
             d="M 0,0 C -4.209,0 -7.622,3.414 -7.622,7.622 V 92.44 c 0,4.209 3.413,7.622 7.622,7.622 4.209,0 7.622,-3.413 7.622,-7.622 V 7.622 C 7.622,3.414 4.209,0 0,0" /></g><path
           id="path42"
           style="fill:#365a39;fill-opacity:1;fill-rule:nonzero;stroke:none"
           d="M 1396.534,435.253 H 801.978 v 20.115 h 594.556 z" /><g
           transform="translate(365.3569,425.769)"
           id="g44"><path
             id="path46"
             style="fill:#365a39;fill-opacity:1;fill-rule:nonzero;stroke:none"
             d="m 0,0 v -422.537 h -1.695 l -300.359,304.887 1.132,-291.309 h -55.435 V 12.445 h 2.833 L -53.734,-295.832 -54.866,0 Z" /></g><g
           transform="translate(512.7065,94.8721)"
           id="g48"><path
             id="path50"
             style="fill:#365a39;fill-opacity:1;fill-rule:nonzero;stroke:none"
             d="m 0,0 c 6.59,-12.445 15.64,-22.26 27.148,-29.419 11.498,-7.165 24.225,-10.744 38.181,-10.744 21.868,0 39.967,7.722 54.303,23.189 14.33,15.462 21.495,34.694 21.495,57.7 0,22.994 -7.165,42.323 -21.495,57.974 -14.336,15.646 -32.435,23.477 -54.303,23.477 -14.336,0 -27.149,-3.677 -38.462,-11.031 C 15.554,103.791 6.59,93.896 0,81.451 -6.602,69.006 -9.9,55.429 -9.9,40.726 -9.9,26.017 -6.602,12.439 0,0 m -46.386,104.359 c 11.118,19.037 26.586,34.027 46.386,44.966 19.794,10.935 42.139,16.404 67.03,16.404 24.885,0 47.034,-5.469 66.461,-16.404 19.415,-10.939 34.503,-25.832 45.253,-44.684 10.745,-18.864 16.117,-39.973 16.117,-63.353 0,-23.385 -5.372,-44.598 -16.117,-63.634 -10.75,-19.047 -25.931,-34.038 -45.535,-44.971 -19.61,-10.929 -42.053,-16.399 -67.311,-16.399 -24.517,0 -46.581,5.183 -66.18,15.554 -19.615,10.365 -34.986,24.976 -46.104,43.834 -11.123,18.851 -16.685,40.725 -16.685,65.616 0,23.001 5.562,44.025 16.685,63.071" /></g><g
           transform="translate(861.4272,129.375)"
           id="g52"><path
             id="path54"
             style="fill:#365a39;fill-opacity:1;fill-rule:nonzero;stroke:none"
             d="m 0,0 -30.544,-24.891 v -87.674 h -52.609 v 438.377 h 52.609 V 29.976 L 90.501,127.268 122.74,98.987 36.198,29.412 134.054,-112.565 H 72.402 Z" /></g><g
           transform="translate(1278.3037,250.9893)"
           id="g56"><path
             id="path58"
             style="fill:#365a39;fill-opacity:1;fill-rule:nonzero;stroke:none"
             d="m 0,0 v -234.18 h -47.518 l -3.389,44.685 c -7.924,-15.835 -20.179,-28.757 -36.767,-38.743 -16.599,-9.992 -35.072,-14.991 -55.435,-14.991 -21.495,0 -39.128,6.504 -52.89,19.512 -13.767,13.015 -21.023,29.884 -21.776,50.626 V 0 h 52.608 v -154.423 c 0.747,-13.203 4.613,-23.667 11.595,-31.394 6.969,-7.734 17.438,-11.79 31.388,-12.159 12.82,0 24.512,3.862 35.073,11.595 10.554,7.723 18.949,18.381 25.172,31.958 6.222,13.577 9.331,28.654 9.331,45.254 l 0,109.169 z" /></g><path
           id="path60"
           style="fill:#365a39;fill-opacity:1;fill-rule:nonzero;stroke:none"
           d="m 1422.545,16.81 h -52.608 v 438.377 h 52.608 z" /><g
           transform="translate(1675.6563,70.8311)"
           id="g62"><path
             id="path64"
             style="fill:#365a39;fill-opacity:1;fill-rule:nonzero;stroke:none"
             d="M 0,0 C 13.761,10.745 22.529,25.356 26.304,43.835 V 90.22 c -4.522,16.588 -13.956,30.067 -28.281,40.444 -14.335,10.365 -30.739,15.554 -49.211,15.554 -13.958,0 -26.868,-3.396 -38.745,-10.182 -11.881,-6.791 -21.31,-16.317 -28.286,-28.567 -6.98,-12.256 -10.463,-26.115 -10.463,-41.571 0,-15.088 3.58,-28.849 10.744,-41.294 7.16,-12.446 16.779,-22.345 28.85,-29.695 12.067,-7.354 25.259,-11.031 39.594,-11.031 19.237,0 35.727,5.372 49.494,16.122 M 78.912,180.158 V -54.021 H 26.304 V -15.56 C 18.007,-26.499 5.941,-36.583 -9.895,-45.822 c -15.84,-9.234 -33.755,-13.853 -53.739,-13.853 -22.254,0 -42.335,4.804 -60.238,14.422 -17.916,9.612 -32.056,23.661 -42.427,42.139 -10.377,18.472 -15.554,40.531 -15.554,66.179 0,25.644 5.373,47.984 16.123,67.031 10.745,19.035 25.258,33.744 43.552,44.121 18.289,10.365 38.555,15.554 60.808,15.554 19.983,0 37.33,-4.338 52.039,-13.008 14.709,-8.682 26.586,-19.995 35.635,-33.941 l 3.959,37.336 z" /></g><g
           transform="translate(1922.8438,229.4941)"
           id="g66"><path
             id="path68"
             style="fill:#365a39;fill-opacity:1;fill-rule:nonzero;stroke:none"
             d="m 0,0 c 11.118,9.803 22.908,17.341 35.348,22.627 12.445,5.274 23.38,8.102 32.808,8.48 L 65.893,-21.494 C 48.925,-20.748 33.556,-24.138 19.794,-31.676 6.027,-39.226 -4.723,-49.688 -12.445,-63.07 -20.179,-76.458 -24.04,-90.702 -24.04,-105.779 v -106.906 h -52.608 v 234.18 h 46.949 l 3.959,-55.434 C -19.714,-21.127 -11.129,-9.813 0,0" /></g></g></g></g></svg>